Coordinates
version=1
nRows=8
nColumns=40
inDegrees=yes

Units are S.I. units (second, meters, Newtons, ...)
Angles are in degrees.

endheader
time	pelvis_tilt	pelvis_list	pelvis_rotation	pelvis_tx	pelvis_ty	pelvis_tz	hip_flexion_r	hip_adduction_r	hip_rotation_r	knee_angle_r	knee_angle_r_beta	ankle_angle_r	subtalar_angle_r	mtp_angle_r	hip_flexion_l	hip_adduction_l	hip_rotation_l	knee_angle_l	knee_angle_l_beta	ankle_angle_l	subtalar_angle_l	mtp_angle_l	lumbar_extension	lumbar_bending	lumbar_rotation	arm_flex_r	arm_add_r	arm_rot_r	elbow_flex_r	pro_sup_r	wrist_flex_r	wrist_dev_r	arm_flex_l	arm_add_l	arm_rot_l	elbow_flex_l	pro_sup_l	wrist_flex_l	wrist_dev_l
     12.68500000	     -5.80590534	     -6.90326194	      5.06889939	      0.80253516	      0.91836135	      0.48098869	      0.96944031	      7.67579948	    -18.79494995	      7.79083578	      7.79083578	     14.96435040	      4.09751169	     -5.29745474	     32.63704904	     -8.40577034	     -2.23974466	     18.20894731	     18.20894731	      3.53629024	     -5.91076344	      7.34699143	     -8.62308270	      8.67150130	      3.58794085	     47.15174410	    -15.72710757	      1.49559206	     99.63185867	     44.20605133	      0.00000000	      0.00000000	    -15.18090150	     -7.44672077	      4.52242982	     28.30795331	     45.04445293	      0.00000000	      0.00000000
     12.69835714	     -5.77446683	     -6.89271248	      4.89441295	      0.80417221	      0.91727084	      0.47953741	      0.54544453	      7.52247187	    -18.54734004	      8.27194339	      8.27194339	     15.80773448	      4.16570872	     -4.31744432	     32.29209044	     -8.29756860	     -1.99143709	     18.80487001	     18.80487001	      2.18095587	     -6.96793676	      5.32673508	     -8.48299051	      8.41320683	      3.58378207	     46.64742690	    -15.74573182	      1.58285312	    102.31777551	     44.15641871	      0.00000000	      0.00000000	    -16.04326319	     -7.55549061	      4.73750797	     28.49899670	     45.01765061	      0.00000000	      0.00000000
     12.71171429	     -5.73930615	     -6.88705031	      4.76660174	      0.80562668	      0.91643605	      0.47790771	      0.09183357	      7.37727520	    -18.36449296	      8.62352744	      8.62352744	     16.26131907	      4.15587715	     -4.21216901	     32.05567118	     -8.23751165	     -1.87275694	     19.59579341	     19.59579341	      1.71743539	     -7.33458250	      4.93324984	     -8.26945253	      8.24827360	      3.56202991	     46.41456918	    -15.62396363	      1.54932918	    102.75831883	     44.15234367	      0.00000000	      0.00000000	    -16.47963113	     -7.58613718	      4.80298504	     28.28544122	     45.00673342	      0.00000000	      0.00000000
     12.72507143	     -5.81509113	     -6.81444874	      4.60683203	      0.80697469	      0.91572248	      0.47610404	     -0.06143164	      7.07297268	    -18.16080183	      9.33650387	      9.33650387	     16.88094287	      3.98693173	     -3.73512897	     31.87271637	     -8.08318906	     -1.66905383	     20.24966157	     20.24966157	      1.19307465	     -7.93730074	      4.14498447	     -8.02215232	      8.00417472	      3.51858080	     45.83759980	    -15.54423737	      1.46645667	    103.78845474	     44.14014477	      0.00000000	      0.00000000	    -16.77901917	     -7.58880537	      4.88961470	     28.05696911	     45.00208022	      0.00000000	      0.00000000
     12.73842857	     -5.71670333	     -6.64454402	      4.49092439	      0.80835136	      0.91561596	      0.47411810	     -0.57237548	      6.72583844	    -17.97033233	      9.68828563	      9.68828563	     17.11973445	      3.90807224	     -3.68956603	     31.49625223	     -7.86514400	     -1.55752830	     20.92835103	     20.92835103	      1.25181650	     -8.24407451	      3.89067515	     -7.94167149	      7.66500251	      3.43641962	     45.18363037	    -15.48034933	      1.53905142	    103.88019204	     44.13559961	      0.00000000	      0.00000000	    -16.90321742	     -7.62123087	      4.89811801	     27.95484304	     45.00109167	      0.00000000	      0.00000000
     12.75178571	     -5.79043960	     -6.51843618	      4.33198371	      0.80935665	      0.91546523	      0.47200122	     -0.41434434	      6.24192495	    -17.74644982	     10.99991624	     10.99991624	     18.15790833	      3.62393284	     -1.78616802	     31.31182347	     -7.59990825	     -1.13674160	     21.50744314	     21.50744314	      0.86758167	     -9.36683003	      2.61541162	     -7.80244246	      7.39786901	      4.00186256	     43.77386191	    -15.98780032	      0.85018287	    105.61213343	     44.16012589	      0.00000000	      0.00000000	    -16.33116376	     -7.74908021	      5.05171282	     27.23730841	     45.03404848	      0.00000000	      0.00000000
     12.76514286	     -5.79496519	     -6.30980158	      4.19784780	      0.81034523	      0.91570942	      0.46969581	     -0.41119996	      5.69157398	    -17.54529842	     12.07478988	     12.07478988	     18.40369290	      3.23944549	     -1.76153017	     31.09295318	     -7.31939388	     -1.01953224	     22.22301013	     22.22301013	      1.29043241	     -9.82274868	      2.35039410	     -7.70434164	      7.08547432	      3.81461906	     42.85209779	    -15.83283824	      0.96602413	    105.58864549	     44.16588981	      0.00000000	      0.00000000	    -16.07692938	     -7.67932727	      5.10858870	     27.15876069	     45.03869291	      0.00000000	      0.00000000
     12.77850000	     -5.60767385	     -6.16052937	      4.09781145	      0.81143852	      0.91655518	      0.46727941	     -0.78773225	      5.26924665	    -17.36639890	     12.77835056	     12.77835056	     18.39839950	      3.02268930	     -1.77784822	     30.60226896	     -7.10028280	     -0.87005088	     22.81542759	     22.81542759	      1.89794763	    -10.20972766	      2.07196070	     -7.82195554	      6.84088354	      3.62205964	     41.74137552	    -15.66049774	      1.16024892	    105.39978273	     44.16399000	      0.00000000	      0.00000000	    -15.71553009	     -7.62459067	      5.12567568	     27.22591057	     45.04438882	      0.00000000	      0.00000000
